<svg width="512" height="512" viewBox="0 0 512 512" fill="none" xmlns="http://www.w3.org/2000/svg">
<g clip-path="url(#clip0_1_5)">
<path d="M256 0C188.12 0 122.96 26.988 75 74.98C26.9905 122.991 0.0132988 188.103 0 256C0 323.868 27 389.028 75 437.02C122.96 485.012 188.12 512 256 512C323.88 512 389.04 485.012 437 437.02C485 389.028 512 323.868 512 256C512 188.132 485 122.972 437 74.98C389.04 26.988 323.88 0 256 0Z" fill="url(#paint0_linear_1_5)"/>
<path d="M115.88 253.296C190.52 220.784 240.28 199.348 265.16 188.992C336.28 159.42 351.04 154.284 360.68 154.11C362.8 154.076 367.52 154.6 370.6 157.09C373.16 159.19 373.88 162.03 374.24 164.024C374.56 166.016 375 170.556 374.64 174.1C370.8 214.58 354.12 312.812 345.64 358.152C342.08 377.336 335 383.768 328.16 384.396C313.28 385.764 302 374.572 287.6 365.136C265.08 350.364 252.36 341.172 230.48 326.76C205.2 310.104 221.6 300.948 236 285.988C239.76 282.072 305.28 222.492 306.52 217.088C306.68 216.412 306.84 213.892 305.32 212.564C303.84 211.232 301.64 211.688 300.04 212.048C297.76 212.56 261.8 236.352 192.04 283.42C181.84 290.436 172.6 293.856 164.28 293.676C155.16 293.48 137.56 288.508 124.48 284.26C108.48 279.048 95.72 276.292 96.84 267.44C97.4 262.832 103.76 258.116 115.88 253.296Z" fill="white"/>
</g>
<defs>
<linearGradient id="paint0_linear_1_5" x1="25600" y1="0" x2="25600" y2="51200" gradientUnits="userSpaceOnUse">
<stop stop-color="#2AABEE"/>
<stop offset="1" stop-color="#229ED9"/>
</linearGradient>
<clipPath id="clip0_1_5">
<rect width="512" height="512" fill="white"/>
</clipPath>
</defs>
</svg>
